<?xml version="1.0" standalone="no"?><!DOCTYPE svg PUBLIC "-//W3C//DTD SVG 1.1//EN" "http://www.w3.org/Graphics/SVG/1.1/DTD/svg11.dtd"><svg t="1579158710583" class="icon" viewBox="0 0 1024 1024" version="1.1" xmlns="http://www.w3.org/2000/svg" p-id="786" xmlns:xlink="http://www.w3.org/1999/xlink" width="200" height="200"><defs><style type="text/css"></style></defs><path d="M813.810526 86.231579h-83.536842v-10.778947c0-21.557895-18.863158-40.421053-40.421052-40.421053H326.063158c-21.557895 0-40.421053 18.863158-40.421053 40.421053v13.473684H210.189474C169.768421 88.926316 137.431579 121.263158 137.431579 161.684211v757.221052c0 40.421053 32.336842 70.063158 72.757895 70.063158h606.315789c40.421053 0 72.757895-32.336842 72.757895-72.757895V158.989474c-2.694737-40.421053-35.031579-72.757895-75.452632-72.757895z m-487.747368-13.473684l366.48421 2.694737v64.673684s0 2.694737-2.694736 2.694737L323.368421 137.431579l2.694737-64.673684zM848.842105 916.210526c0 18.863158-16.168421 35.031579-35.031579 35.031579H207.494737c-18.863158 0-35.031579-16.168421-35.031579-32.336842V158.989474c0-18.863158 16.168421-35.031579 35.031579-35.031579h78.147368v13.473684c0 21.557895 18.863158 40.421053 40.421053 40.421053h366.48421c21.557895 0 40.421053-18.863158 40.421053-40.421053v-13.473684h83.536842c18.863158 0 35.031579 16.168421 35.031579 35.031579V916.210526z" p-id="787" fill="#1DDDCB"></path><path d="M374.568421 301.810526L326.063158 350.315789l-16.168421-13.473684c-8.084211-8.084211-18.863158-8.084211-26.947369 0-8.084211 8.084211-8.084211 18.863158 0 26.947369l26.947369 26.947368 2.694737 2.694737s2.694737 0 2.694737 2.694737c2.694737 0 5.389474 2.694737 8.08421 2.694737s5.389474 0 8.084211-2.694737c0 0 2.694737 0 2.694736-2.694737 2.694737 0 2.694737-2.694737 2.694737-2.694737l61.978948-59.28421c8.084211-8.084211 8.084211-18.863158 0-26.947369-5.389474-10.778947-16.168421-10.778947-24.252632-2.694737zM762.610526 293.726316h-264.08421c-10.778947 0-18.863158 8.084211-18.863158 18.863158s8.084211 18.863158 18.863158 18.863158h264.08421c10.778947 0 18.863158-8.084211 18.863158-18.863158s-8.084211-18.863158-18.863158-18.863158zM762.610526 358.4h-264.08421c-10.778947 0-18.863158 8.084211-18.863158 18.863158s8.084211 18.863158 18.863158 18.863158h264.08421c10.778947 0 18.863158-8.084211 18.863158-18.863158s-8.084211-18.863158-18.863158-18.863158zM374.568421 509.305263l-48.505263 48.505263-16.168421-13.473684c-8.084211-8.084211-18.863158-8.084211-26.947369 0-8.084211 8.084211-8.084211 18.863158 0 26.947369l26.947369 26.947368s2.694737 2.694737 5.389474 2.694737h2.694736c2.694737 0 5.389474 2.694737 8.084211 2.694737s5.389474 0 8.08421-2.694737h2.694737c2.694737 0 2.694737-2.694737 5.389474-2.694737L404.210526 538.947368c8.084211-8.084211 8.084211-18.863158 0-26.947368-10.778947-8.084211-21.557895-8.084211-29.642105-2.694737zM762.610526 503.915789h-264.08421c-10.778947 0-18.863158 8.084211-18.863158 18.863158s8.084211 18.863158 18.863158 18.863158h264.08421c10.778947 0 18.863158-8.084211 18.863158-18.863158s-8.084211-18.863158-18.863158-18.863158zM762.610526 568.589474h-264.08421c-10.778947 0-18.863158 8.084211-18.863158 18.863158s8.084211 18.863158 18.863158 18.863157h264.08421c10.778947 0 18.863158-8.084211 18.863158-18.863157s-8.084211-18.863158-18.863158-18.863158zM374.568421 719.494737l-48.505263 48.505263-16.168421-13.473684c-8.084211-8.084211-18.863158-8.084211-26.947369 0-8.084211 8.084211-8.084211 18.863158 0 26.947368l26.947369 26.947369c2.694737 2.694737 2.694737 2.694737 5.389474 2.694736s5.389474 2.694737 8.08421 2.694737c2.694737 0 5.389474 0 8.084211-2.694737 0 0 2.694737 0 2.694736-2.694736l2.694737-2.694737 61.978948-59.284211c8.084211-8.084211 8.084211-18.863158 0-26.947368-5.389474-8.084211-16.168421-8.084211-24.252632 0zM762.610526 711.410526h-264.08421c-10.778947 0-18.863158 8.084211-18.863158 18.863158s8.084211 18.863158 18.863158 18.863158h264.08421c10.778947 0 18.863158-8.084211 18.863158-18.863158s-8.084211-18.863158-18.863158-18.863158zM762.610526 776.084211h-264.08421c-10.778947 0-18.863158 8.084211-18.863158 18.863157s8.084211 18.863158 18.863158 18.863158h264.08421c10.778947 0 18.863158-8.084211 18.863158-18.863158s-8.084211-18.863158-18.863158-18.863157z" p-id="788" fill="#1DDDCB"></path></svg>