<?xml version="1.0" standalone="no"?><!DOCTYPE svg PUBLIC "-//W3C//DTD SVG 1.1//EN" "http://www.w3.org/Graphics/SVG/1.1/DTD/svg11.dtd"><svg t="1582701434561" class="icon" viewBox="0 0 1024 1024" version="1.1" xmlns="http://www.w3.org/2000/svg" p-id="820" xmlns:xlink="http://www.w3.org/1999/xlink" width="200" height="200"><defs><style type="text/css"></style></defs><path d="M512 512m-414 0a414 414 0 1 0 828 0 414 414 0 1 0-828 0Z" fill="#F0C48A" p-id="821"></path><path d="M928.2 744H95.8c-46.4 0-84-37.6-84-84V140.4C11.8 94 49.4 56.2 96 56.2h832.2c46.4 0 84.2 37.6 84.2 84.2V660c-0.2 46.4-37.8 84-84.2 84z" fill="#D3E6F8" p-id="822"></path><path d="M11.8 631V660c0 46.4 37.6 84.2 84.2 84.2h832.2c46.4 0 84.2-37.6 84.2-84.2v-29H11.8z" fill="#FFFFFF" p-id="823"></path><path d="M405 744h214.2v143H405zM754.2 967.8H269.8v-40c0-22.4 18.2-40.8 40.8-40.8h403c22.4 0 40.8 18.2 40.8 40.8v40z" fill="#FFFFFF" p-id="824"></path><path d="M667.8 967.8h86.4v-40c0-22.4-18.2-40.8-40.8-40.8h-45.6v80.8zM925.8 749.2c47.8 0 86.4-38.6 86.4-86.4v-38.4h-86.4v124.8z" fill="#D3E6F8" p-id="825"></path><path d="M925.8 56.2c47.8 0 86.4 38.6 86.4 86.4v488.4h-86.4V56.2z" fill="#A4CFF2" p-id="826"></path><path d="M568 744h51v139.6H568z" fill="#D3E6F8" p-id="827"></path><path d="M674.2 186.6H920v65.6H674.2zM674.2 327.2H920v65.6H674.2zM674.2 468H920v65.6H674.2z" fill="#FD919E" p-id="828"></path><path d="M928.2 755.8H95.8C43 755.8 0 712.8 0 660V140.4c0-52.8 43-95.8 95.8-95.8H928c52.8 0 95.8 43 95.8 95.8V660c0.2 52.8-42.8 95.8-95.6 95.8zM95.8 68c-40 0-72.4 32.4-72.4 72.4V660c0 40 32.4 72.4 72.4 72.4H928c40 0 72.4-32.4 72.4-72.4V140.4c0-40-32.4-72.4-72.4-72.4H95.8z" fill="#4C4372" p-id="829"></path><path d="M619 898.8h-214c-6.4 0-11.8-5.2-11.8-11.8V744c0-6.4 5.2-11.8 11.8-11.8h214.2c6.4 0 11.8 5.2 11.8 11.8v143c-0.2 6.6-5.4 11.8-12 11.8z m-202.4-23.4h190.8v-119.6h-190.8v119.6z" fill="#4C4372" p-id="830"></path><path d="M754.2 979.4H269.8c-6.4 0-11.8-5.2-11.8-11.8v-40c0-29 23.6-52.4 52.4-52.4h403c29 0 52.4 23.6 52.4 52.4v40c0.2 6.6-5 11.8-11.6 11.8zM281.4 956h461v-28.2c0-16-13-29-29-29H310.4c-16 0-29 13-29 29V956zM995.8 642.6H17.6c-6.4 0-11.8-5.2-11.8-11.8 0-6.4 5.2-11.8 11.8-11.8h978.2c6.4 0 11.8 5.2 11.8 11.8-0.2 6.6-5.4 11.8-11.8 11.8z" fill="#4C4372" p-id="831"></path><path d="M198.6 478.4c-52.4 0-94.8-42.4-94.8-94.8s42.4-94.8 94.8-94.8c15 0 29.2 3.6 42 9.8 25.8-34.4 67-56.6 113.2-56.6 70.6 0 129 51.6 139.8 119.2 3.4-0.6 6.8-1 10.4-1 32.6 0 59.2 26.4 59.2 59.2s-26.4 59.2-59.2 59.2H198.6z" fill="#FFFFFF" p-id="832"></path><path d="M504 490H198.6C139.8 490 92 442.2 92 383.6s47.8-106.6 106.6-106.6c13.4 0 26.2 2.4 38.4 7.2 29.2-34.4 71.2-54 116.8-54 36.8 0 72.2 13.2 100 37 24.6 21.2 42 49.8 49.2 81.2h1c39 0 70.8 31.8 70.8 70.8S543.2 490 504 490zM198.6 300.4c-45.8 0-83.2 37.2-83.2 83.2s37.2 83.2 83.2 83.2H504c26.2 0 47.4-21.2 47.4-47.4S530.2 372 504 372c-2.8 0-5.6 0.2-8.4 0.8-3 0.6-6.2-0.2-8.8-2-2.6-1.8-4.2-4.6-4.8-7.8-4.8-30.2-20.2-57.8-43.6-77.8-23.6-20.2-53.6-31.4-84.6-31.4-41.2 0-79 19-103.8 51.8-3.4 4.6-9.6 6-14.6 3.4-11.6-5.6-23.8-8.6-36.8-8.6z" fill="#4C4372" p-id="833"></path><path d="M418.4 309.8c-3 0-6-1.2-8.2-3.4-4.6-4.6-4.6-12 0-16.6l78.8-78.8c2.2-2.2 5.2-3.4 8.2-3.4h177.2c6.4 0 11.8 5.2 11.8 11.8s-5.2 11.8-11.8 11.8H502l-75.2 75.2c-2.4 2.4-5.4 3.4-8.4 3.4zM674.2 375.2h-238c-6.4 0-11.8-5.2-11.8-11.8s5.2-11.8 11.8-11.8h238.2c6.4 0 11.8 5.2 11.8 11.8s-5.4 11.8-12 11.8zM674.2 512.6h-128c-3.2 0-6-1.2-8.2-3.4L516.8 488c-4.6-4.6-4.6-12 0-16.6 4.6-4.6 12-4.6 16.6 0l17.8 17.8h123c6.4 0 11.8 5.2 11.8 11.8s-5.2 11.6-11.8 11.6z" fill="#4C4372" p-id="834"></path><path d="M865 184.8h55.2v67.6h-55.2zM865 329.6h55.2v67.6h-55.2z" fill="#E8677D" p-id="835"></path><path d="M865 466.8h55.2v67.6h-55.2z" fill="#E8677D" p-id="836"></path><path d="M920.2 264h-246c-6.4 0-11.8-5.2-11.8-11.8V186.6c0-6.4 5.2-11.8 11.8-11.8H920c6.4 0 11.8 5.2 11.8 11.8v65.6c0.2 6.6-5.2 11.8-11.6 11.8zM686 240.6h222.4V198.4H686v42.2zM920.2 404.8h-246c-6.4 0-11.8-5.2-11.8-11.8v-65.6c0-6.4 5.2-11.8 11.8-11.8H920c6.4 0 11.8 5.2 11.8 11.8v65.6c0.2 6.4-5.2 11.8-11.6 11.8zM686 381.2h222.4v-42.2H686v42.2zM920.2 545.4h-246c-6.4 0-11.8-5.2-11.8-11.8V468c0-6.4 5.2-11.8 11.8-11.8H920c6.4 0 11.8 5.2 11.8 11.8v65.6c0.2 6.6-5.2 11.8-11.6 11.8zM686 522h222.4v-42.2H686V522z" fill="#4C4372" p-id="837"></path></svg>