<?xml version="1.0" standalone="no"?><!DOCTYPE svg PUBLIC "-//W3C//DTD SVG 1.1//EN" "http://www.w3.org/Graphics/SVG/1.1/DTD/svg11.dtd"><svg t="1561538233710" class="icon" viewBox="0 0 1024 1024" version="1.1" xmlns="http://www.w3.org/2000/svg" p-id="15067" xmlns:xlink="http://www.w3.org/1999/xlink" width="200" height="200"><defs><style type="text/css"></style></defs><path d="M585.2 974.3l-6.9-13.1c-13.5-25.6-39.9-41.5-68.7-41.5-28.6 0-54.8 15.6-68.4 40.8l-7 13-14.5-2.9c-60.9-12.2-117.9-36.1-169.5-71l-12.2-8.2 4.2-14.1c8.2-27.4 0.8-57.1-19.5-77.3-20.2-20.2-49.7-27.7-77-19.6l-14.1 4.2-8.2-12.2C88.7 720.7 65 663.6 53 602.7l-2.9-14.6 13.1-7c25.5-13.5 41.3-39.8 41.3-68.6 0-28.9-15.9-55.2-41.5-68.7L50 437l2.8-14.6c11.8-60.9 35.3-118 69.8-169.7l8.4-12.6 14.4 4.6c27.9 9 58.1 1.7 78.8-19 20.8-20.8 28-51.1 18.9-79.2l-4.7-14.4 12.5-8.4C302.4 89 359.3 65.3 420 53.2l15.1-3 6.8 13.8c0.3 0.5 0.5 1.1 0.8 1.6l0.4 0.8c0.4 0.8 0.9 1.7 1.4 2.5 0.2 0.3 0.3 0.5 0.5 0.8l1.5 2.4c0.2 0.3 0.4 0.5 0.5 0.8 0.5 0.8 1.1 1.6 1.7 2.4l0.5 0.7c0.6 0.8 1.2 1.6 1.9 2.5l0.4 0.5c0.7 0.9 1.5 1.8 2.3 2.6l0.3 0.3c0.2 0.2 0.3 0.4 0.5 0.6l0.7 0.4 2 2.5c0.7 0.7 1.4 1.3 2.1 2l0.3 0.3c0.9 0.8 1.8 1.6 2.6 2.3l0.5 0.4c0.8 0.7 1.7 1.3 2.5 1.9l0.7 0.5c0.8 0.6 1.6 1.2 2.4 1.7 0.3 0.2 0.6 0.4 0.8 0.5l2.4 1.5c0.3 0.2 0.5 0.3 0.8 0.5 0.8 0.5 1.7 1 2.5 1.4l0.8 0.4c0.9 0.5 1.8 0.9 2.7 1.4l0.6 0.3c0.9 0.4 1.9 0.9 3 1.3l0.4 0.2c1 0.4 2.1 0.8 3.2 1.2h0.1c1.2 0.4 2.3 0.8 3.4 1.1h0.1c3.5 1 7 1.8 10.6 2.3l0.5 0.1c1.1 0.2 2.3 0.3 3.4 0.4h0.2c1.2 0.1 2.4 0.2 3.5 0.3h0.2c2.7 0.1 4.7 0.1 7.3 0h0.3c1.1-0.1 2.3-0.1 3.5-0.3h0.2c1.1-0.1 2.2-0.2 3.4-0.4h0.3c3.7-0.5 7.3-1.3 10.8-2.4h0.1c1.2-0.3 2.3-0.7 3.4-1.1l0.2-0.1c1.1-0.4 2.1-0.8 3.2-1.2l0.4-0.2c1-0.4 2-0.9 3-1.3l0.6-0.3c0.9-0.4 1.9-0.9 2.7-1.3l0.8-0.4c0.9-0.5 1.7-0.9 2.5-1.4 0.3-0.2 0.6-0.3 0.9-0.5l2.4-1.5c0.3-0.2 0.5-0.4 0.8-0.5 0.8-0.5 1.6-1.1 2.4-1.7l0.7-0.5c0.8-0.6 1.6-1.2 2.5-1.9l0.4-0.3v-3.5l8-4c0.2-0.2 0.4-0.4 0.5-0.6l0.3-0.3c0.8-0.9 1.5-1.7 2.2-2.6l0.4-0.5c0.7-0.9 1.3-1.7 1.9-2.5l0.5-0.7c0.6-0.8 1.1-1.6 1.7-2.4 0.2-0.3 0.4-0.6 0.6-0.8l1.5-2.4c0.2-0.3 0.3-0.6 0.5-0.8 0.5-0.8 1-1.7 1.4-2.5l0.4-0.7c0.3-0.6 0.6-1.1 0.8-1.7l6.8-13.8 15.1 3c60.7 12 117.5 35.6 169 70.2l12.8 8.6-5.1 14.6c-9.8 28-2.6 59.7 18.4 80.7 21.2 21.2 51.9 28.3 80.3 18.5l14.6-5 8.5 12.9c34.3 51.7 57.6 108.7 69.3 169.4l2.9 15-13.8 6.7c-26.9 13.1-43.7 39.9-43.7 69.9 0 29.6 16.4 56.2 42.9 69.5l13.7 6.9-3.1 15c-12.4 60.7-36.4 117.5-71.4 168.8l-8.5 12.4-14.3-4.7c-28-9.1-58.3-1.9-79.1 18.9-20.5 20.5-27.8 50.4-19.2 78.1l4.5 14.3-12.5 8.3c-51.9 34.3-109.1 57.6-170 69.2l-14 2.8z m-75.6-94.6c38.6 0 74.2 18.7 96.1 49.7 46.2-10.3 89.9-28.1 130.3-53-6.5-37.4 5.4-75.9 32.8-103.2 27.8-27.8 66.8-39.6 104.7-32.5 25.3-39.9 43.6-83.1 54.5-128.9-32-21.8-51.3-57.7-51.3-97.2 0-22.5 6.4-44.3 18.4-63.2a116 116 0 0 1 34-34.7c-10.4-45.7-28.1-89-52.8-129-15.9 3.1-32.4 3-48.4-0.6-21.9-4.8-41.8-15.8-57.7-31.7-16-16-26.9-36-31.7-58-3.5-16.1-3.6-32.7-0.4-48.7-39.8-24.9-83-42.8-128.6-53.4-0.8 1.2-1.6 2.3-2.4 3.5l-0.1 0.2c-0.2 0.3-0.5 0.7-0.7 1-0.9 1.2-1.9 2.5-2.9 3.7l-0.6 0.8c-0.6 0.8-1.3 1.6-2 2.3v0.5l-5.7 5.7-0.1 0.1-2.3 2.3-0.1 0.1c-0.6 0.6-1.2 1.1-1.8 1.7l-0.4 0.3c-1.3 1.2-2.7 2.4-4 3.4l-0.8 0.6c-1.3 1-2.5 2-3.8 2.9-0.3 0.2-0.6 0.5-0.9 0.7l-0.1 0.1c-1.2 0.9-2.4 1.7-3.6 2.5-0.4 0.3-0.8 0.5-1.2 0.8-1.2 0.8-2.4 1.5-3.6 2.3-0.4 0.3-0.9 0.5-1.3 0.8-1.2 0.7-2.5 1.4-3.8 2.1-0.4 0.2-0.8 0.4-1.1 0.6-1.3 0.7-2.7 1.4-4.1 2l-0.9 0.4c-1.5 0.7-3 1.3-4.5 2l-0.6 0.2c-1.6 0.7-3.3 1.3-4.9 1.9l-0.4 0.1c-1.7 0.6-3.4 1.1-5.2 1.7h-0.2c-5.4 1.6-10.8 2.8-16.3 3.6l-0.4 0.1c-1.8 0.3-3.6 0.5-5.4 0.6h-0.3c-1.8 0.2-3.6 0.3-5.3 0.4h-0.3c-3.8 0.2-7 0.2-10.8 0h-0.3c-1.7-0.1-3.5-0.2-5.4-0.4h-0.2c-1.7-0.2-3.5-0.4-5.2-0.6h-0.2H495c-5.5-0.8-11-2-16.3-3.6h-0.1c-1.8-0.5-3.5-1.1-5.3-1.7l-0.3-0.1c-1.7-0.6-3.3-1.2-4.9-1.9l-0.6-0.3c-1.5-0.6-3-1.3-4.5-2l-0.8-0.4c-1.5-0.7-2.9-1.4-4.2-2.1l-1.2-0.6c-1.3-0.7-2.6-1.4-3.8-2.1-0.4-0.2-0.8-0.5-1.3-0.7-1.2-0.7-2.5-1.5-3.7-2.3-0.4-0.3-0.8-0.6-1.3-0.8-1.2-0.8-2.4-1.6-3.6-2.5-0.4-0.3-0.7-0.5-1.1-0.8-1.2-0.9-2.5-1.9-3.7-2.9l-0.8-0.6c-1.3-1.1-2.6-2.2-4-3.4l-0.4-0.4c-0.6-0.6-1.2-1.1-1.8-1.7l-0.1-0.1-3-3c-1.1-1.1-2.2-2.3-3.3-3.5l-0.4-0.4c-1.2-1.3-2.3-2.6-3.4-4l-0.6-0.8c-1-1.3-2-2.5-2.9-3.8-0.2-0.3-0.5-0.6-0.7-1l-0.1-0.1c-0.8-1.1-1.6-2.2-2.3-3.3-45.8 10.7-89 28.8-129 53.8 7.1 37.9-4.7 76.9-32.5 104.7-27.6 27.6-66.4 39.5-104.2 32.6-25 40.2-42.9 83.8-53.4 129.9 31 21.9 49.6 57.5 49.6 96 0 38.4-18.6 73.9-49.4 95.9 10.6 46.3 28.8 90 54.1 130.3 37-5.9 74.9 6.1 101.8 33 27 27 39 65.1 32.9 102.2 40.3 25.4 83.9 43.7 130.2 54.5 21.6-30.2 56.9-48.6 95-48.6z m2.4-155.9c-116.8 0-211.8-95-211.8-211.8s95-211.8 211.8-211.8 211.8 95 211.8 211.8-95 211.8-211.8 211.8z m0-383.6c-94.7 0-171.8 77.1-171.8 171.8S417.3 683.8 512 683.8 683.8 606.7 683.8 512 606.7 340.2 512 340.2z" fill="#1DDDCB" p-id="15068"></path></svg>