<?xml version="1.0" standalone="no"?><!DOCTYPE svg PUBLIC "-//W3C//DTD SVG 1.1//EN" "http://www.w3.org/Graphics/SVG/1.1/DTD/svg11.dtd"><svg t="1561538276149" class="icon" viewBox="0 0 1024 1024" version="1.1" xmlns="http://www.w3.org/2000/svg" p-id="15239" xmlns:xlink="http://www.w3.org/1999/xlink" width="200" height="200"><defs><style type="text/css"></style></defs><path d="M518 78.2c54.5 0 105.7 20.9 144.2 58.8 38.3 37.7 59.4 87.9 59.4 141.1s-21.1 103.4-59.4 141.1C623.7 457.1 572.5 478 518 478s-105.7-20.9-144.2-58.8c-38.3-37.7-59.4-87.9-59.4-141.1s21.1-103.4 59.4-141.1c38.5-37.9 89.7-58.8 144.2-58.8m0-46.8c-138.3 0-250.4 110.5-250.4 246.8S379.8 524.9 518 524.9s250.4-110.5 250.4-246.8S656.3 31.4 518 31.4z" p-id="15240" fill="#1DDDCB"></path><path d="M31.3 1001.6c-12.9 0-23.4-10.5-23.4-23.4 0-66 13.1-130 38.9-190.3 24.9-58.2 60.6-110.5 106.1-155.3 45.4-44.8 98.4-80.1 157.3-104.6 61-25.5 125.8-38.4 192.5-38.4 66.8 0 131.5 12.9 192.5 38.4 11.9 5 17.6 18.7 12.6 30.6s-18.7 17.6-30.6 12.6C622 548 563.3 536.3 502.7 536.3c-60.5 0-119.2 11.7-174.5 34.8-53.4 22.3-101.3 54.2-142.4 94.8-41.1 40.6-73.4 87.8-96 140.4-23.3 54.4-35.2 112.3-35.2 171.9 0.1 12.9-10.3 23.4-23.3 23.4z" p-id="15241" fill="#1DDDCB"></path><path d="M991.3 761c-3.7-20.6-10.7-40.6-20.7-59l-35-0.3c-18.7-0.2-33.2-16.2-31.1-34.5l3.8-34.4c-8.6-5.9-17.7-11.2-27.4-15.8s-19.6-8.4-29.5-11.4l-25.1 24.3c-13.3 12.9-35.1 11.7-46.8-2.7l-21.9-27c-20.9 3.6-41.2 10.5-59.9 20.4l-0.3 34.5c-0.2 18.4-16.4 32.7-35 30.7l-34.9-3.8c-5.9 8.4-11.3 17.4-16 27-4.7 9.6-8.5 19.3-11.6 29.1l24.6 24.7c13.1 13.1 11.8 34.6-2.8 46.1l-27.3 21.6c3.7 20.6 10.7 40.6 20.7 59l35 0.3c18.7 0.2 33.2 16.2 31.1 34.5l-3.8 34.4c8.6 5.9 17.7 11.2 27.4 15.8 9.7 4.6 19.6 8.4 29.6 11.4l25.1-24.3c13.3-12.9 35.1-11.7 46.8 2.7l21.9 27c20.9-3.6 41.2-10.5 59.9-20.4l0.3-34.5c0.2-18.4 16.4-32.7 35-30.7l34.9 3.8c5.9-8.4 11.3-17.4 16-27 4.7-9.6 8.5-19.3 11.6-29.1l-24.6-24.7c-13.1-13.1-11.8-34.6 2.8-46.1l27.2-21.6z m-125.4 49.4c-12.2 54.9-77.2 77.1-121.2 41.4-20.7-16.8-30.6-44.9-24.9-70.7C732 726.2 797 704 841 739.7c20.8 16.8 30.6 44.9 24.9 70.7z" p-id="15242" fill="#1DDDCB"></path></svg>